<svg width="95" height="15" viewBox="0 0 95 15" fill="none" xmlns="http://www.w3.org/2000/svg">
<path d="M8.248 1.71247C8.248 1.50447 8.232 0.912469 7.912 0.912469C7.352 0.912469 6.744 1.50447 6.744 2.06447C6.744 3.60047 6.84 5.15247 6.84 6.68847C6.84 7.80847 6.824 8.92847 6.68 10.0485C4.872 8.52847 3.384 5.42447 2.264 3.32847C2.12 3.07247 1.976 2.80047 1.864 2.52847C1.72 2.17647 1.576 1.61647 1.096 1.61647C0.263996 1.61647 0.00799561 2.48047 0.00799561 3.16847C0.00799561 6.14447 0.455996 9.08847 0.455996 12.0645C0.455996 12.5445 0.423996 13.0245 0.423996 13.5045C0.423996 13.6805 0.487996 13.8085 0.679996 13.8085C1.208 13.8085 2.04 13.0725 2.04 12.5285C2.04 11.3445 1.848 10.1765 1.848 8.99247C1.848 8.57647 1.848 8.17647 1.88 7.76047C4.024 9.29647 4.904 12.5765 6.696 14.4005C6.792 14.4965 6.888 14.5445 7.016 14.5445C7.512 14.5445 8.2 13.9525 8.2 13.4405C8.2 10.7365 8.248 8.03247 8.248 5.32847V1.71247Z" fill="black"/>
<path d="M20.149 5.84047C20.149 5.36047 19.685 5.32847 19.317 5.32847C16.933 5.32847 14.597 5.87247 12.213 5.95247C12.213 5.50447 12.117 5.05647 12.117 4.60847C12.117 4.27247 12.213 3.92047 12.389 3.63247C13.285 3.18447 14.725 3.15247 15.717 3.15247C16.597 3.15247 17.477 3.29647 18.357 3.29647C18.853 3.29647 18.997 3.04047 18.997 2.57647C18.997 2.16047 18.805 1.36047 18.357 1.20047C17.717 0.960468 16.661 0.976469 15.973 0.976469C14.469 0.976469 12.917 1.13647 11.445 1.42447C10.693 1.56847 10.085 2.17647 10.085 2.96047C10.085 3.23247 10.213 3.52047 10.501 3.58447C10.549 4.24047 10.805 4.86447 10.805 5.52047C10.805 5.76047 10.757 6.01647 10.661 6.24047C10.037 6.33647 9.989 6.83247 9.829 7.34447C9.765 7.56847 9.685 7.79247 9.685 8.03247C9.685 8.36847 9.861 8.65647 10.229 8.65647C10.309 8.65647 10.405 8.64047 10.485 8.60847C10.501 8.84847 10.517 9.08847 10.517 9.32847C10.517 10.1925 10.421 11.0565 10.421 11.9205C10.421 12.2085 10.437 12.5125 10.469 12.8005C10.565 13.6805 10.645 14.1445 11.669 14.1445C13.861 14.1445 16.997 12.7045 18.693 11.3445C18.965 11.1205 19.029 10.8485 19.029 10.5125C19.029 10.1925 18.917 9.50447 18.485 9.50447C17.653 9.50447 14.853 11.7445 12.165 11.7285C12.117 11.0725 11.973 10.4165 11.973 9.74447C11.973 9.31247 12.021 8.83247 12.325 8.49647C14.053 7.68047 16.997 7.53647 18.933 7.32847C19.829 7.23247 19.893 6.94447 20.101 6.14447C20.133 6.04847 20.149 5.93647 20.149 5.84047Z" fill="black"/>
<path d="M32.516 12.2725C32.516 12.1765 32.484 12.0805 32.42 12.0005C31.172 10.2085 29.156 9.07247 27.764 7.39247C28.244 6.38447 28.82 5.40847 29.46 4.49647C29.828 3.98447 31.14 2.41647 31.14 1.88847C31.14 1.44047 30.676 0.800468 30.196 0.800468C29.684 0.800468 26.916 5.23247 26.42 5.93647C25.428 5.15247 24.58 4.16047 23.876 3.10447C23.54 2.59247 22.932 1.26447 22.228 1.26447C21.54 1.26447 21.028 2.43247 21.028 3.02447C21.028 4.36847 24.02 7.15247 24.868 8.36847C24.164 10.0485 22.916 11.4085 22.132 13.0245C22.084 13.1205 22.052 13.2325 22.052 13.3445C22.052 13.8085 22.532 14.5445 23.044 14.5445C23.188 14.5445 23.284 14.4805 23.38 14.3685C23.748 13.9525 24.004 13.4245 24.292 12.9605C24.98 11.8565 25.668 10.7685 26.468 9.74447C27.252 10.3525 30.468 13.6165 31.108 13.6165C31.668 13.6165 32.516 12.8485 32.516 12.2725Z" fill="black"/>
<path d="M42.3061 2.03247C42.3061 1.13647 39.3141 1.26447 38.5941 1.26447C37.1061 1.26447 34.9621 1.26447 33.5541 1.72847C32.8021 1.98447 32.6901 2.75247 32.6901 3.44047C32.6901 3.82447 32.9301 4.00047 33.2981 4.00047C34.3221 4.00047 35.2501 3.39247 36.2741 3.39247H36.3861C36.3381 4.84847 36.4021 6.28847 36.3221 7.74447C36.2261 9.71247 36.0021 11.6805 36.0021 13.6485C36.0021 13.9525 36.0821 14.2885 36.4501 14.2885C37.2021 14.2885 37.8421 13.6805 37.8421 12.9285C37.8421 11.8245 37.7941 10.7045 37.7941 9.60047C37.7941 7.47247 37.8421 5.32847 37.9541 3.20047C38.5141 2.97647 39.1221 2.86447 39.7301 2.86447C40.2421 2.86447 40.7541 2.96047 41.2661 2.96047C41.9701 2.96047 42.0981 2.86447 42.2901 2.19247C42.3061 2.14447 42.3061 2.08047 42.3061 2.03247Z" fill="black"/>
<path d="M57.9359 3.56847C57.9359 3.61647 57.9359 3.66447 57.9199 3.69647C57.3439 5.26447 53.6319 6.80047 52.0639 7.02447C51.9839 6.35247 51.9359 5.66447 51.9359 4.97647C51.9359 4.49647 51.9519 4.00047 52.0319 3.52047C53.1199 3.08847 54.7199 2.91247 55.9039 2.91247C56.3519 2.91247 57.9359 2.92847 57.9359 3.56847ZM59.9359 2.56047C59.9359 1.42447 58.7999 1.28047 57.9199 1.15247C57.1359 1.02447 56.3519 0.960468 55.5679 0.960468C53.9839 0.960468 52.2879 1.07247 50.7519 1.47247C50.0479 1.66447 49.6799 2.19247 49.6799 2.91247C49.6799 3.21647 49.7759 3.68047 50.1599 3.71247C50.1119 4.88047 50.1759 6.03247 50.1759 7.20047C50.1759 9.47247 49.9839 11.7125 49.9839 13.9845C49.9839 14.2245 49.9839 14.9125 50.3519 14.9125C50.9599 14.9125 51.9839 13.9365 51.9839 13.3285C51.9839 12.3685 51.7919 11.4245 51.7919 10.4645C51.7919 10.1925 51.8079 9.90447 51.8399 9.63247C52.8319 9.05647 53.9519 8.76847 54.9599 8.20847C57.1359 7.00847 59.9359 5.40847 59.9359 2.56047Z" fill="black"/>
<path d="M65.6691 8.09647C64.3411 8.32047 62.9971 8.59247 61.7331 9.08847C61.8611 7.53647 63.0291 4.89647 63.7971 3.50447C64.6131 4.17647 64.9171 5.56847 65.2851 6.52847C65.4931 7.05647 65.6531 7.52047 65.6691 8.09647ZM68.9171 12.8965C68.9171 12.8165 68.9011 12.7205 68.8851 12.6405C68.3891 9.96847 67.6211 7.34447 66.8051 4.75247C66.4051 3.50447 65.7811 1.21647 64.4691 0.672468C64.2611 0.592468 64.0371 0.512468 63.8131 0.512468C62.4371 0.512468 62.1171 2.99247 61.7651 3.96847C60.7571 6.80047 58.4371 11.1845 58.4371 14.0805C58.4371 14.3525 58.5011 14.4485 58.7891 14.4485C59.2211 14.4485 60.4691 13.9205 60.4691 13.4085C60.4691 12.8645 60.4051 12.1285 60.8851 11.7445C61.0131 11.6325 61.3971 11.5045 61.5731 11.4405C63.0451 10.8325 64.6771 10.1925 66.2771 10.0965C66.5971 10.8645 66.8691 13.5365 67.1731 13.8885C67.3331 14.0805 67.4291 14.1285 67.6691 14.1285C68.3251 14.1285 68.9171 13.5525 68.9171 12.8965Z" fill="black"/>
<path d="M83.3044 6.43247C83.3044 5.72847 83.1124 3.98447 82.1524 3.98447C82.1204 3.98447 82.0724 4.00047 82.0404 4.00047C80.4244 4.32047 75.4804 6.00047 74.2804 6.94447C74.0724 7.10447 73.9124 7.24847 73.9124 7.53647C73.9124 8.09647 74.6644 8.88047 75.2404 8.88047C75.2884 8.88047 75.3364 8.88047 75.3684 8.86447C77.3684 8.08047 78.5684 7.10447 80.8564 6.94447C81.2404 7.07247 81.4484 7.37647 81.4484 7.77647C81.4484 8.03247 81.4004 8.28847 81.3204 8.54447C80.9524 9.76047 79.4484 10.8805 78.3124 11.3445C77.2244 11.7925 75.9284 12.0805 74.7444 12.0805C73.6564 12.0805 72.6004 11.8245 71.8964 10.9285C71.4644 10.3685 71.1604 9.66447 71.1604 8.96047C71.1604 8.33647 71.3684 7.71247 71.6404 7.15247C72.9204 4.49647 75.2084 2.99247 78.0884 2.57647C78.7124 2.48047 79.4164 2.57647 80.0084 2.41647C80.4724 2.28847 80.5844 2.03247 80.5844 1.56847C80.5844 0.544469 79.9284 0.480469 79.0804 0.480469C76.4244 0.480469 74.1524 1.76047 72.2004 3.47247C70.5044 4.94447 69.2564 7.87247 69.2564 10.1125C69.2564 12.0645 71.0164 14.0645 72.9844 14.2405C73.2884 14.2725 73.5924 14.2725 73.8964 14.2725C78.7604 14.2725 83.3044 11.8245 83.3044 6.43247Z" fill="black"/>
<path d="M94.6959 5.84047C94.6959 5.36047 94.2319 5.32847 93.8639 5.32847C91.4799 5.32847 89.1439 5.87247 86.7599 5.95247C86.7599 5.50447 86.6639 5.05647 86.6639 4.60847C86.6639 4.27247 86.7599 3.92047 86.9359 3.63247C87.8319 3.18447 89.2719 3.15247 90.2639 3.15247C91.1439 3.15247 92.0239 3.29647 92.9039 3.29647C93.3999 3.29647 93.5439 3.04047 93.5439 2.57647C93.5439 2.16047 93.3519 1.36047 92.9039 1.20047C92.2639 0.960468 91.2079 0.976469 90.5199 0.976469C89.0159 0.976469 87.4639 1.13647 85.9919 1.42447C85.2399 1.56847 84.6319 2.17647 84.6319 2.96047C84.6319 3.23247 84.7599 3.52047 85.0479 3.58447C85.0959 4.24047 85.3519 4.86447 85.3519 5.52047C85.3519 5.76047 85.3039 6.01647 85.2079 6.24047C84.5839 6.33647 84.5359 6.83247 84.3759 7.34447C84.3119 7.56847 84.2319 7.79247 84.2319 8.03247C84.2319 8.36847 84.4079 8.65647 84.7759 8.65647C84.8559 8.65647 84.9519 8.64047 85.0319 8.60847C85.0479 8.84847 85.0639 9.08847 85.0639 9.32847C85.0639 10.1925 84.9679 11.0565 84.9679 11.9205C84.9679 12.2085 84.9839 12.5125 85.0159 12.8005C85.1119 13.6805 85.1919 14.1445 86.2159 14.1445C88.4079 14.1445 91.5439 12.7045 93.2399 11.3445C93.5119 11.1205 93.5759 10.8485 93.5759 10.5125C93.5759 10.1925 93.4639 9.50447 93.0319 9.50447C92.1999 9.50447 89.3999 11.7445 86.7119 11.7285C86.6639 11.0725 86.5199 10.4165 86.5199 9.74447C86.5199 9.31247 86.5679 8.83247 86.8719 8.49647C88.5999 7.68047 91.5439 7.53647 93.4799 7.32847C94.3759 7.23247 94.4399 6.94447 94.6479 6.14447C94.6799 6.04847 94.6959 5.93647 94.6959 5.84047Z" fill="black"/>
</svg>
