<svg width="14" height="16" viewBox="0 0 14 16" fill="none" xmlns="http://www.w3.org/2000/svg">
<path d="M6.58424 7.85556C6.58424 7.26356 5.99224 6.71956 5.64024 6.30356C4.56824 5.05556 3.68825 3.64756 2.87225 2.23956C2.63225 1.83955 1.86424 0.143555 1.41624 0.143555C0.744244 0.143555 0.00823975 1.48755 0.00823975 2.07955C0.00823975 2.17556 0.0242428 2.27155 0.0722427 2.35155C0.424243 3.02355 0.936242 3.64756 1.35224 4.27155C2.24824 5.61555 3.14424 6.97556 4.05624 8.31956C3.35224 10.5916 1.59224 12.3356 0.728241 14.5436C0.696241 14.6396 0.664246 14.7356 0.664246 14.8476C0.664246 15.1676 0.952243 15.2796 1.22424 15.2796C1.68824 15.2796 2.10424 15.0556 2.39224 14.6876C2.71224 14.2716 2.98424 13.7916 3.27224 13.3596C4.00824 12.2556 4.74425 11.1516 5.40025 9.99956C5.75225 9.39156 6.28024 8.86356 6.52024 8.20756C6.56824 8.09556 6.58424 7.98356 6.58424 7.85556Z" fill="black"/>
<path d="M13.6311 7.85556C13.6311 7.26356 13.0391 6.71956 12.6871 6.30356C11.6151 5.05556 10.7351 3.64756 9.91912 2.23956C9.67912 1.83955 8.91112 0.143555 8.46312 0.143555C7.79112 0.143555 7.05511 1.48755 7.05511 2.07955C7.05511 2.17556 7.07112 2.27155 7.11912 2.35155C7.47112 3.02355 7.98312 3.64756 8.39912 4.27155C9.29512 5.61555 10.1911 6.97556 11.1031 8.31956C10.3991 10.5916 8.63912 12.3356 7.77512 14.5436C7.74312 14.6396 7.71112 14.7356 7.71112 14.8476C7.71112 15.1676 7.99912 15.2796 8.27112 15.2796C8.73512 15.2796 9.15112 15.0556 9.43912 14.6876C9.75912 14.2716 10.0311 13.7916 10.3191 13.3596C11.0551 12.2556 11.7911 11.1516 12.4471 9.99956C12.7991 9.39156 13.3271 8.86356 13.5671 8.20756C13.6151 8.09556 13.6311 7.98356 13.6311 7.85556Z" fill="black"/>
</svg>
