<svg width="135" height="15" viewBox="0 0 135 15" fill="none" xmlns="http://www.w3.org/2000/svg">
<path d="M8.68587 3.56764C8.68587 3.61564 8.68587 3.66364 8.66987 3.69564C8.09387 5.26364 4.38187 6.79964 2.81387 7.02364C2.73387 6.35164 2.68587 5.66364 2.68587 4.97564C2.68587 4.49564 2.70187 3.99964 2.78187 3.51964C3.86987 3.08764 5.46987 2.91164 6.65387 2.91164C7.10187 2.91164 8.68587 2.92764 8.68587 3.56764ZM10.6859 2.55964C10.6859 1.42364 9.54987 1.27964 8.66987 1.15164C7.88587 1.02364 7.10187 0.959641 6.31787 0.959641C4.73387 0.959641 3.03787 1.07164 1.50187 1.47164C0.797871 1.66364 0.429871 2.19164 0.429871 2.91164C0.429871 3.21564 0.525872 3.67964 0.909872 3.71164C0.861872 4.87964 0.925871 6.03164 0.925871 7.19964C0.925871 9.47164 0.733871 11.7116 0.733871 13.9836C0.733871 14.2236 0.733871 14.9116 1.10187 14.9116C1.70987 14.9116 2.73387 13.9356 2.73387 13.3276C2.73387 12.3676 2.54187 11.4236 2.54187 10.4636C2.54187 10.1916 2.55787 9.90364 2.58987 9.63164C3.58187 9.05564 4.70187 8.76764 5.70987 8.20764C7.88587 7.00764 10.6859 5.40764 10.6859 2.55964Z" fill="black"/>
<path d="M19.1884 3.90364C19.1884 4.15964 18.9324 4.36764 18.7564 4.52764C17.2684 5.83964 15.3484 7.45564 13.3804 7.90364C13.2844 7.31164 13.2524 6.71964 13.2524 6.12764C13.2524 5.39164 13.2684 4.63964 13.4764 3.91964C14.9644 3.55164 16.5164 3.50364 18.0364 3.50364C18.3084 3.50364 19.1884 3.48764 19.1884 3.90364ZM21.8764 11.5836C21.8764 10.5596 19.3324 9.67964 18.5324 9.34364C17.8284 9.05564 17.1564 8.67164 16.4044 8.55964C16.8364 8.17564 17.3644 7.93564 17.7964 7.56764C18.9004 6.62364 21.6524 4.46364 21.6524 2.94364C21.6524 1.42364 19.3164 1.40764 18.2444 1.40764C17.4924 1.40764 16.7564 1.43964 16.0044 1.43964C14.7564 1.43964 11.4284 1.50364 11.4284 3.29564C11.4284 3.58364 11.5884 3.85564 11.8284 4.03164C11.7644 4.46364 11.7484 4.87964 11.7484 5.31164C11.7484 6.12764 11.8124 6.92764 11.8124 7.74364C11.8124 8.03164 11.8124 8.33564 11.7804 8.62364C11.4764 8.94364 11.1884 9.34364 11.1884 9.80764C11.1884 10.1596 11.3804 10.4796 11.6844 10.6556C11.7644 11.0876 11.7644 11.5356 11.7644 11.9836C11.7644 12.7356 11.7324 13.4716 11.7324 14.2236C11.7324 14.3516 11.7804 14.4636 11.9244 14.4636C12.4044 14.4636 13.1404 13.6476 13.2844 13.2156C13.3644 12.9756 13.3804 12.7196 13.3804 12.4636C13.3804 12.0156 13.3164 11.5836 13.3164 11.1356C13.3164 10.9116 13.3324 10.6876 13.3804 10.4796C16.3564 10.6076 18.1484 11.5356 20.6284 13.0556C20.7244 13.1036 20.8044 13.1516 20.9164 13.1516C21.5084 13.1516 21.8764 12.0636 21.8764 11.5836Z" fill="black"/>
<path d="M33.2584 5.83964C33.2584 5.35964 32.7944 5.32764 32.4264 5.32764C30.0424 5.32764 27.7064 5.87164 25.3224 5.95164C25.3224 5.50364 25.2264 5.05564 25.2264 4.60764C25.2264 4.27164 25.3224 3.91964 25.4984 3.63164C26.3944 3.18364 27.8344 3.15164 28.8264 3.15164C29.7064 3.15164 30.5864 3.29564 31.4664 3.29564C31.9624 3.29564 32.1064 3.03964 32.1064 2.57564C32.1064 2.15964 31.9144 1.35964 31.4664 1.19964C30.8264 0.959641 29.7704 0.975641 29.0824 0.975641C27.5784 0.975641 26.0264 1.13564 24.5544 1.42364C23.8024 1.56764 23.1944 2.17564 23.1944 2.95964C23.1944 3.23164 23.3224 3.51964 23.6104 3.58364C23.6584 4.23964 23.9144 4.86364 23.9144 5.51964C23.9144 5.75964 23.8664 6.01564 23.7704 6.23964C23.1464 6.33564 23.0984 6.83164 22.9384 7.34364C22.8744 7.56764 22.7944 7.79164 22.7944 8.03164C22.7944 8.36764 22.9704 8.65564 23.3384 8.65564C23.4184 8.65564 23.5144 8.63964 23.5944 8.60764C23.6104 8.84764 23.6264 9.08764 23.6264 9.32764C23.6264 10.1916 23.5304 11.0556 23.5304 11.9196C23.5304 12.2076 23.5464 12.5116 23.5784 12.7996C23.6744 13.6796 23.7544 14.1436 24.7784 14.1436C26.9704 14.1436 30.1064 12.7036 31.8024 11.3436C32.0744 11.1196 32.1384 10.8476 32.1384 10.5116C32.1384 10.1916 32.0264 9.50364 31.5944 9.50364C30.7624 9.50364 27.9624 11.7436 25.2744 11.7276C25.2264 11.0716 25.0824 10.4156 25.0824 9.74364C25.0824 9.31164 25.1304 8.83164 25.4344 8.49564C27.1624 7.67964 30.1064 7.53564 32.0424 7.32764C32.9384 7.23164 33.0024 6.94364 33.2104 6.14364C33.2424 6.04764 33.2584 5.93564 33.2584 5.83964Z" fill="black"/>
<path d="M43.9774 1.37564C43.9774 1.10364 43.6094 1.08764 43.4334 1.08764C42.8894 1.08764 42.2974 1.27964 41.9934 1.75964C41.8014 2.06364 41.6734 2.54364 41.5774 2.89564C40.9054 5.24764 40.9534 8.44764 39.4974 10.4476C39.0654 9.63164 38.7294 8.78364 38.4094 7.91964C37.9614 6.73564 36.2974 1.32764 34.9374 1.32764C34.2814 1.32764 33.8654 2.36764 33.8654 2.91164C33.8654 3.02364 33.8814 3.11964 33.9294 3.21564C35.2734 6.27164 36.7454 9.24764 37.8014 12.4316C37.9454 12.8476 38.2654 14.3516 38.7934 14.3516C39.4014 14.3516 40.0894 13.4716 40.3294 12.9596C41.1774 11.1036 41.6094 9.00764 42.1534 7.05564C42.6814 5.18364 43.2894 3.34364 43.9454 1.51964C43.9614 1.47164 43.9774 1.42364 43.9774 1.37564Z" fill="black"/>
<path d="M47.0872 2.91164C47.0872 2.01564 46.7353 1.02364 45.6793 1.02364C45.2313 1.02364 45.2312 2.14364 45.2312 2.44764C45.2312 4.35164 45.3593 6.27164 45.3593 8.17564C45.3593 8.71964 45.3592 9.26364 45.3272 9.80764C45.2792 10.8156 45.1032 11.8076 45.1032 12.8156C45.1032 13.1996 45.1033 14.3516 45.6793 14.3516C45.7753 14.3516 45.8712 14.3196 45.9512 14.2876C46.6872 13.9516 46.8953 13.4556 46.9273 12.6876C46.9593 11.9036 46.9593 11.1356 46.9593 10.3516C46.9593 8.33564 46.8792 6.31964 47.0072 4.30364C47.0392 3.83964 47.0872 3.37564 47.0872 2.91164Z" fill="black"/>
<path d="M58.4416 7.34364C58.4416 8.03164 58.3616 8.75164 58.0576 9.37564C57.4336 10.6876 55.7056 11.9836 54.2176 11.9836C54.0576 11.9836 53.8816 11.9676 53.7216 11.9356C51.5296 11.5196 50.4256 10.4316 50.4256 8.14364C50.4256 6.79964 50.9376 5.50364 51.8976 4.55964C52.6016 3.87164 53.5136 3.29564 54.5216 3.29564C55.6896 3.29564 56.9856 4.15964 57.7376 4.99164C58.3136 5.63164 58.4416 6.51164 58.4416 7.34364ZM60.3456 6.67164C60.3456 3.87164 57.8016 1.24764 54.9856 1.24764C53.0016 1.24764 50.7456 2.99164 49.8656 4.71964C49.2096 6.01564 48.5536 7.71164 48.5536 9.18364C48.5536 10.3836 49.0176 11.5996 49.8016 12.5116C50.7456 13.6316 52.2496 14.0156 53.6576 14.0156C54.5216 14.0156 55.4016 13.8716 56.1856 13.4876C58.6496 12.3036 60.3456 9.37564 60.3456 6.67164Z" fill="black"/>
<path d="M69.3424 0.927641C69.3424 0.59164 69.1824 0.431641 68.8464 0.431641C68.3664 0.431641 67.2144 0.927641 67.2144 1.50364C67.2144 2.15964 67.2784 2.81564 67.3264 3.47164C67.4224 4.83164 67.5024 6.20764 67.5024 7.56764C67.5024 9.63164 67.6784 10.6556 65.6624 11.6156C65.3424 11.7756 64.9904 11.8876 64.6224 11.8876C63.2304 11.8876 63.1984 10.0316 63.1984 9.03964C63.1984 6.63964 63.4544 4.25564 63.4544 1.87164C63.4544 1.48764 63.3424 1.23164 62.9104 1.23164C62.4624 1.23164 61.7104 1.63164 61.7104 2.14364C61.7104 5.29564 61.6464 8.43164 61.6464 11.5836C61.6464 11.9996 61.6464 12.4316 61.6944 12.8476C61.8544 14.0476 63.0544 14.3356 64.0784 14.3356C64.5264 14.3356 64.9744 14.3036 65.4064 14.1596C67.8704 13.3756 69.0224 11.6156 69.1664 9.03964C69.2624 7.24764 69.2304 5.43964 69.2624 3.63164C69.2784 2.73564 69.3424 1.82364 69.3424 0.927641Z" fill="black"/>
<path d="M81.7722 7.00764C81.7722 6.39964 81.5803 5.85564 80.8763 5.85564C80.6363 5.85564 80.3963 5.88764 80.1562 5.91964C78.7323 6.07964 77.2922 6.17564 75.8522 6.17564C74.7482 6.17564 73.6283 6.09564 72.5403 5.88764C73.1163 4.28764 76.0443 2.83164 77.6763 2.83164C78.0603 2.83164 78.4282 2.87964 78.8122 2.87964C79.2922 2.87964 80.0123 2.87964 80.0123 2.22364C80.0123 1.61564 79.5482 0.799641 78.9082 0.67164C78.6682 0.623641 78.4282 0.623641 78.1882 0.623641C75.7402 0.623641 73.7402 2.14364 72.0602 3.75964C71.1962 4.60764 70.0922 5.56764 70.0922 6.87964C70.0922 8.28764 70.6683 8.43164 71.9323 8.43164C72.1563 8.43164 72.3642 8.41564 72.5882 8.39964C74.0602 8.28764 75.5322 8.15964 77.0202 8.15964C77.6602 8.15964 78.2842 8.17564 78.9242 8.22364C78.9402 8.27164 78.9402 8.31964 78.9402 8.36764C78.9402 9.03964 78.2363 9.91964 77.7243 10.3196C76.1083 11.5996 74.6043 11.6956 72.6842 12.0796C72.2682 12.1596 71.9642 12.3196 71.9642 12.7996C71.9642 13.4396 72.7163 14.4796 73.4043 14.4796C73.5323 14.4796 73.6763 14.4636 73.8043 14.4316C77.3563 13.6156 79.9002 11.7756 81.4362 8.43164C81.6442 7.98364 81.7722 7.50364 81.7722 7.00764Z" fill="black"/>
<path d="M97.8577 3.56764C97.8577 3.61564 97.8578 3.66364 97.8418 3.69564C97.2658 5.26364 93.5537 6.79964 91.9857 7.02364C91.9057 6.35164 91.8577 5.66364 91.8577 4.97564C91.8577 4.49564 91.8738 3.99964 91.9538 3.51964C93.0418 3.08764 94.6418 2.91164 95.8258 2.91164C96.2738 2.91164 97.8577 2.92764 97.8577 3.56764ZM99.8577 2.55964C99.8577 1.42364 98.7218 1.27964 97.8418 1.15164C97.0578 1.02364 96.2738 0.959641 95.4898 0.959641C93.9058 0.959641 92.2098 1.07164 90.6738 1.47164C89.9698 1.66364 89.6018 2.19164 89.6018 2.91164C89.6018 3.21564 89.6977 3.67964 90.0817 3.71164C90.0337 4.87964 90.0977 6.03164 90.0977 7.19964C90.0977 9.47164 89.9057 11.7116 89.9057 13.9836C89.9057 14.2236 89.9058 14.9116 90.2738 14.9116C90.8818 14.9116 91.9057 13.9356 91.9057 13.3276C91.9057 12.3676 91.7138 11.4236 91.7138 10.4636C91.7138 10.1916 91.7297 9.90364 91.7617 9.63164C92.7537 9.05564 93.8738 8.76764 94.8818 8.20764C97.0578 7.00764 99.8577 5.40764 99.8577 2.55964Z" fill="black"/>
<path d="M105.591 8.09564C104.263 8.31964 102.919 8.59164 101.655 9.08764C101.783 7.53564 102.951 4.89564 103.719 3.50364C104.535 4.17564 104.839 5.56764 105.207 6.52764C105.415 7.05564 105.575 7.51964 105.591 8.09564ZM108.839 12.8956C108.839 12.8156 108.823 12.7196 108.807 12.6396C108.311 9.96764 107.543 7.34364 106.727 4.75164C106.327 3.50364 105.703 1.21564 104.391 0.67164C104.183 0.59164 103.959 0.511641 103.735 0.511641C102.359 0.511641 102.039 2.99164 101.687 3.96764C100.679 6.79964 98.359 11.1836 98.359 14.0796C98.359 14.3516 98.423 14.4476 98.711 14.4476C99.143 14.4476 100.391 13.9196 100.391 13.4076C100.391 12.8636 100.327 12.1276 100.807 11.7436C100.935 11.6316 101.319 11.5036 101.495 11.4396C102.967 10.8316 104.599 10.1916 106.199 10.0956C106.519 10.8636 106.791 13.5356 107.095 13.8876C107.255 14.0796 107.351 14.1276 107.591 14.1276C108.247 14.1276 108.839 13.5516 108.839 12.8956Z" fill="black"/>
<path d="M123.226 6.43164C123.226 5.72764 123.034 3.98364 122.074 3.98364C122.042 3.98364 121.994 3.99964 121.962 3.99964C120.346 4.31964 115.402 5.99964 114.202 6.94364C113.994 7.10364 113.834 7.24764 113.834 7.53564C113.834 8.09564 114.586 8.87964 115.162 8.87964C115.21 8.87964 115.258 8.87964 115.29 8.86364C117.29 8.07964 118.49 7.10364 120.778 6.94364C121.162 7.07164 121.37 7.37564 121.37 7.77564C121.37 8.03164 121.322 8.28764 121.242 8.54364C120.874 9.75964 119.37 10.8796 118.234 11.3436C117.146 11.7916 115.85 12.0796 114.666 12.0796C113.578 12.0796 112.522 11.8236 111.818 10.9276C111.386 10.3676 111.082 9.66364 111.082 8.95964C111.082 8.33564 111.29 7.71164 111.562 7.15164C112.842 4.49564 115.13 2.99164 118.01 2.57564C118.634 2.47964 119.338 2.57564 119.93 2.41564C120.394 2.28764 120.506 2.03164 120.506 1.56764C120.506 0.543641 119.85 0.479641 119.002 0.479641C116.346 0.479641 114.074 1.75964 112.122 3.47164C110.426 4.94364 109.178 7.87164 109.178 10.1116C109.178 12.0636 110.938 14.0636 112.906 14.2396C113.21 14.2716 113.514 14.2716 113.818 14.2716C118.682 14.2716 123.226 11.8236 123.226 6.43164Z" fill="black"/>
<path d="M134.618 5.83964C134.618 5.35964 134.154 5.32764 133.786 5.32764C131.402 5.32764 129.066 5.87164 126.682 5.95164C126.682 5.50364 126.586 5.05564 126.586 4.60764C126.586 4.27164 126.682 3.91964 126.858 3.63164C127.754 3.18364 129.194 3.15164 130.186 3.15164C131.066 3.15164 131.946 3.29564 132.826 3.29564C133.322 3.29564 133.466 3.03964 133.466 2.57564C133.466 2.15964 133.274 1.35964 132.826 1.19964C132.186 0.959641 131.13 0.975641 130.442 0.975641C128.938 0.975641 127.386 1.13564 125.914 1.42364C125.162 1.56764 124.554 2.17564 124.554 2.95964C124.554 3.23164 124.682 3.51964 124.97 3.58364C125.018 4.23964 125.274 4.86364 125.274 5.51964C125.274 5.75964 125.226 6.01564 125.13 6.23964C124.506 6.33564 124.458 6.83164 124.298 7.34364C124.234 7.56764 124.154 7.79164 124.154 8.03164C124.154 8.36764 124.33 8.65564 124.698 8.65564C124.778 8.65564 124.874 8.63964 124.954 8.60764C124.97 8.84764 124.986 9.08764 124.986 9.32764C124.986 10.1916 124.89 11.0556 124.89 11.9196C124.89 12.2076 124.906 12.5116 124.938 12.7996C125.034 13.6796 125.114 14.1436 126.138 14.1436C128.33 14.1436 131.466 12.7036 133.162 11.3436C133.434 11.1196 133.498 10.8476 133.498 10.5116C133.498 10.1916 133.386 9.50364 132.954 9.50364C132.122 9.50364 129.322 11.7436 126.634 11.7276C126.586 11.0716 126.442 10.4156 126.442 9.74364C126.442 9.31164 126.49 8.83164 126.794 8.49564C128.522 7.67964 131.466 7.53564 133.402 7.32764C134.298 7.23164 134.362 6.94364 134.57 6.14364C134.602 6.04764 134.618 5.93564 134.618 5.83964Z" fill="black"/>
</svg>
