<svg width="15" height="16" viewBox="0 0 15 16" fill="none" xmlns="http://www.w3.org/2000/svg">
<path d="M7.32798 13.5198C7.32798 12.3998 5.66398 11.1518 4.89598 10.4158C4.06398 9.59978 3.27998 8.71978 2.63998 7.74378C3.05598 6.95978 3.51998 6.20778 4.03198 5.48778C4.67198 4.57578 6.38398 2.33578 6.38398 1.27978C6.38398 0.783781 5.93598 0.175781 5.40798 0.175781C4.87998 0.175781 4.43198 1.51978 4.23998 1.91978C3.51998 3.40778 2.73598 5.05578 1.64798 6.30378C1.13598 6.89578 0.143982 7.37578 0.143982 8.23978C0.143982 8.31978 0.143982 8.39978 0.159982 8.47978C0.367982 9.29578 1.03998 9.42378 1.55198 9.96778C1.98398 10.4318 2.35198 10.9438 2.76798 11.4238C3.88798 12.7358 5.00798 14.0958 6.22398 15.3118C6.27198 15.3598 6.33598 15.4078 6.41598 15.4078C6.99198 15.4078 7.32798 13.9678 7.32798 13.5198Z" fill="black"/>
<path d="M14.2342 13.5198C14.2342 12.3998 12.5702 11.1518 11.8022 10.4158C10.9702 9.59978 10.1862 8.71978 9.54623 7.74378C9.96223 6.95978 10.4262 6.20778 10.9382 5.48778C11.5782 4.57578 13.2902 2.33578 13.2902 1.27978C13.2902 0.783781 12.8422 0.175781 12.3142 0.175781C11.7862 0.175781 11.3382 1.51978 11.1462 1.91978C10.4262 3.40778 9.64223 5.05578 8.55423 6.30378C8.04223 6.89578 7.05023 7.37578 7.05023 8.23978C7.05023 8.31978 7.05023 8.39978 7.06623 8.47978C7.27423 9.29578 7.94623 9.42378 8.45823 9.96778C8.89023 10.4318 9.25823 10.9438 9.67423 11.4238C10.7942 12.7358 11.9142 14.0958 13.1302 15.3118C13.1782 15.3598 13.2422 15.4078 13.3222 15.4078C13.8982 15.4078 14.2342 13.9678 14.2342 13.5198Z" fill="black"/>
</svg>
