<svg width="32" height="32" viewBox="0 0 32 32" fill="none" xmlns="http://www.w3.org/2000/svg">
<path d="M16 6.66699V2.66699L10.6666 8.00033L16 13.3337V9.33366C20.4133 9.33366 24 12.9203 24 17.3337C24 21.2937 21.1066 24.5737 17.3333 25.2137V27.907C22.6 27.2537 26.6666 22.7737 26.6666 17.3337C26.6666 11.4403 21.8933 6.66699 16 6.66699ZM7.99998 17.3337C7.99998 15.1337 8.89331 13.1337 10.3466 11.6803L8.45331 9.78699C6.45517 11.7903 5.33314 14.5042 5.33331 17.3337C5.33331 22.7737 9.39998 27.2537 14.6666 27.907V25.2137C10.8933 24.5737 7.99998 21.2937 7.99998 17.3337Z" fill="black"/>
</svg>
